<svg id="Layer_1" data-name="Layer 1" xmlns="http://www.w3.org/2000/svg" viewBox="0 0 306.46 328.92"><defs><style>.cls-1,.cls-2,.cls-5{fill:none;stroke:#000;stroke-miterlimit:10;}.cls-1,.cls-5{stroke-width:0.5px;}.cls-3{font-size:32.18px;}.cls-3,.cls-4,.cls-7{font-family:Arial-BoldMT, Arial;font-weight:700;}.cls-4{font-size:32.18px;}.cls-5{stroke-linecap:round;}.cls-6{isolation:isolate;}.cls-7{font-size:7.14px;}</style></defs><title>svsdBW</title><path class="cls-1" d="M125.5,86.62V107.7s2.62-.34,3.48-.35a25.93,25.93,0,0,1,3.17.4V86.62Z" transform="translate(26.74 36.53)"/><circle class="cls-2" cx="154.94" cy="164.12" r="125.2"/><circle class="cls-2" cx="154.94" cy="164.12" r="80.03"/><text class="cls-3" transform="translate(67.94 188.17) rotate(-98.63)">S</text><text class="cls-3" transform="translate(65.28 167.76) rotate(-89.41)">.</text><text class="cls-3" transform="matrix(0.17, -0.99, 0.99, 0.17, 64.8, 159.63)">V</text><text class="cls-3" transform="translate(67.99 142.15) rotate(-72.75)">.</text><text class="cls-3" transform="translate(69.84 134.22) rotate(-63.45)">S</text><text class="cls-3" transform="matrix(0.59, -0.81, 0.81, 0.59, 79.41, 116.05)">.</text><text class="cls-3" transform="translate(83.63 109.23) rotate(-44.97)">D</text><text class="cls-3" transform="matrix(0.82, -0.57, 0.57, 0.82, 99.89, 93.88)">.</text><text class="cls-3" transform="matrix(0.9, -0.43, 0.43, 0.9, 106.23, 88.79)">P</text><text class="cls-3" transform="translate(121.32 81.73) rotate(-18.6)">.</text><text class="cls-3" transform="matrix(0.99, -0.14, 0.14, 0.99, 128.68, 78.4)">G</text><text class="cls-3" transform="matrix(1, 0.04, -0.04, 1, 152.53, 75.57)">.</text><text class="cls-3" transform="translate(160.93 75.84) rotate(7.43)"> </text><text class="cls-3" transform="translate(169.06 76.21) rotate(17.23)">C</text><text class="cls-3" transform="translate(190.11 82.44) rotate(32)">O</text><text class="cls-3" transform="translate(210.11 95.26) rotate(45.03)">L</text><text class="cls-3" transform="translate(223.26 108.36) rotate(57.45)">L</text><text class="cls-3" transform="translate(233.43 123.88) rotate(70.07)">E</text><text class="cls-3" transform="translate(240.67 142.76) rotate(84.2)">G</text><text class="cls-3" transform="translate(243.01 166.41) rotate(98.29)">E</text><text class="cls-4" transform="translate(52.79 209.91) rotate(61.22)">B</text><text class="cls-4" transform="matrix(0.68, 0.73, -0.73, 0.68, 66.08, 233.21)">H</text><text class="cls-4" transform="translate(84.57 252.58) rotate(33.34)">A</text><text class="cls-4" transform="matrix(0.93, 0.37, -0.37, 0.93, 104.53, 265.44)">T</text><text class="cls-4" transform="translate(125.31 273.83) rotate(9.08)">O</text><text class="cls-4" transform="matrix(1, -0.08, 0.08, 1, 153.48, 277.61)">L</text><text class="cls-4" transform="translate(175.17 275.41) rotate(-12.93)">I</text><text class="cls-4" transform="matrix(0.95, -0.31, 0.31, 0.95, 185.15, 273.05)"> </text><text class="cls-4" transform="translate(195.08 269.68) rotate(-23.5)">(</text><text class="cls-4" transform="matrix(0.83, -0.56, 0.56, 0.83, 207.32, 264.63)">H</text><text class="cls-4" transform="matrix(0.72, -0.69, 0.69, 0.72, 228.08, 249.58)">.</text><text class="cls-4" transform="translate(236.44 242) rotate(-52.94)">P</text><text class="cls-4" transform="translate(247.7 226.73) rotate(-59.55)">.</text><text class="cls-4" transform="translate(252.94 217.75) rotate(-65.38)">)</text><circle cx="59.08" cy="198.47" r="4.93"/><circle cx="253.11" cy="198.47" r="4.93"/><path class="cls-2" d="M166.76,129.49,151.34,146.4l-20.4,0H110.51L95.09,129.49a5.23,5.23,0,0,1-1.27-4.28l4.4-27.93a24,24,0,0,0-2.73-15.45l-.79-1.46A4,4,0,0,1,95.06,76l5.37-6.89a1.38,1.38,0,0,1,2-.21,9,9,0,0,0,5.8,2.36H122.8a2.37,2.37,0,0,0,1.68-.7l6.27-6.33a.26.26,0,0,1,.38,0l6.28,6.33a2.26,2.26,0,0,0,1.64.67l14.57,0a8.85,8.85,0,0,0,5.8-2.37,1.4,1.4,0,0,1,2,.22L166.82,76a4,4,0,0,1,.34,4.37l-.79,1.46a24.21,24.21,0,0,0-2.73,15.45l4.4,27.93A5.13,5.13,0,0,1,166.76,129.49Z" transform="translate(26.74 36.53)"/><path class="cls-2" d="M166.76,129.49,151.34,146.4l-20.4,0H110.51L95.09,129.49a5.23,5.23,0,0,1-1.27-4.28l4.4-27.93a24,24,0,0,0-2.73-15.45l-.79-1.46A4,4,0,0,1,95.06,76l5.37-6.89a1.38,1.38,0,0,1,2-.21,9,9,0,0,0,5.8,2.36H122.8a2.37,2.37,0,0,0,1.68-.7l6.27-6.33a.26.26,0,0,1,.38,0l6.28,6.33a2.26,2.26,0,0,0,1.64.67l14.57,0a8.85,8.85,0,0,0,5.8-2.37,1.4,1.4,0,0,1,2,.22L166.82,76a4,4,0,0,1,.34,4.37l-.79,1.46a24.21,24.21,0,0,0-2.73,15.45l4.4,27.93A5.13,5.13,0,0,1,166.76,129.49Z" transform="translate(26.74 36.53)"/><path class="cls-2" d="M166.76,129.49,151.34,146.4l-20.4,0H110.51L95.09,129.49a5.23,5.23,0,0,1-1.27-4.28l4.4-27.93a24,24,0,0,0-2.73-15.45l-.79-1.46A4,4,0,0,1,95.06,76l5.37-6.89a1.38,1.38,0,0,1,2-.21,9,9,0,0,0,5.8,2.36H122.8a2.37,2.37,0,0,0,1.68-.7l6.27-6.33a.26.26,0,0,1,.38,0l6.28,6.33a2.26,2.26,0,0,0,1.64.67l14.57,0a8.85,8.85,0,0,0,5.8-2.37,1.4,1.4,0,0,1,2,.22L166.82,76a4,4,0,0,1,.34,4.37l-.79,1.46a24.21,24.21,0,0,0-2.73,15.45l4.4,27.93A5.13,5.13,0,0,1,166.76,129.49Z" transform="translate(26.74 36.53)"/><ellipse class="cls-1" cx="155.85" cy="118.21" rx="16.32" ry="4.93"/><rect class="cls-2" x="88.68" y="182.93" width="131.04" height="17.82"/><path class="cls-5" d="M69.72,142.4" transform="translate(26.74 36.53)"/><path class="cls-5" d="M70.86,125.26" transform="translate(26.74 36.53)"/><polyline class="cls-1" points="88.68 182.93 102.09 182.93 101.94 170.75 88.68 182.93"/><polyline class="cls-1" points="102.2 170.41 79.07 169.95 88.68 182.93"/><polyline class="cls-1" points="219.69 182.82 206.28 182.82 206.43 170.64 219.93 182.82"/><polyline class="cls-1" points="206.21 170.33 229.31 169.84 219.93 182.82"/><g class="cls-6"><g class="cls-6"><path d="M131.67,126.67c-.19,8.87-1.44,15.77-2.92,15.86h0c1-.05,1.86-7,2-15.86Z" transform="translate(26.74 36.53)"/><path d="M131.69,123.84h-.93c0-8.8-.73-15.89-1.7-16.46h.05C130.55,108,131.65,115.05,131.69,123.84Z" transform="translate(26.74 36.53)"/><path d="M128.67,142.53h0c-.62,0-1.06-6.94-1-15.86h1c0,2.85,0,5.5,0,7.78C128.55,139.31,128.59,142.53,128.67,142.53Z" transform="translate(26.74 36.53)"/><path d="M129,107.35c-.12.13-.28,7.39-.37,16.49h-.95C127.77,114.75,128.34,107.48,129,107.35Z" transform="translate(26.74 36.53)"/><path d="M128.81,142.53h0Z" transform="translate(26.74 36.53)"/><path d="M134.44,126.67c-.3,8.85-2.7,15.73-5.58,15.85a1.9,1.9,0,0,0,1-.43c2-1.69,3.37-8.36,3.68-15.42Z" transform="translate(26.74 36.53)"/><path d="M134.46,123.84h-.88c0-7.93-1.27-15.57-4.47-16.45h-.05l0,0C132,107.58,134.31,114.82,134.46,123.84Z" transform="translate(26.74 36.53)"/><path d="M128.91,142.53l.28,0h-.28Z" transform="translate(26.74 36.53)"/><path d="M137.14,126.67c-.4,8.63-3.75,15.39-7.88,15.84h-.07c3.71-.44,6.74-7.2,7.11-15.84Z" transform="translate(26.74 36.53)"/><path d="M137.16,123.84h-.84c-.22-8.77-3.2-15.86-7-16.45C133.57,107.93,136.91,115,137.16,123.84Z" transform="translate(26.74 36.53)"/><path d="M129.32,142.51h-.18A.55.55,0,0,0,129.32,142.51Z" transform="translate(26.74 36.53)"/><path d="M139.78,126.67c-.5,8.51-4.79,15.21-10.11,15.82h-.18a0,0,0,0,1,0,0h0c5-.49,9.11-7.23,9.58-15.83Z" transform="translate(26.74 36.53)"/><path d="M139.81,123.84h-.75c-.33-8.76-4.41-15.82-9.53-16.45h0C135.08,108,139.45,115.08,139.81,123.84Z" transform="translate(26.74 36.53)"/><path d="M129,142.53h0Z" transform="translate(26.74 36.53)"/><path d="M129.32,142.51h-.18A.55.55,0,0,0,129.32,142.51Z" transform="translate(26.74 36.53)"/><path d="M129.52,142.5h0Z" transform="translate(26.74 36.53)"/><path d="M129.53,107.39a3.43,3.43,0,0,0-.56,0c.21,0,.42,0,.63,0A.16.16,0,0,0,129.53,107.39Z" transform="translate(26.74 36.53)"/><path d="M141.8,126.67c-.57,8.3-5.4,14.87-11.49,15.76l-.25,0h-.39c6.05-.53,10.93-7.26,11.49-15.82Z" transform="translate(26.74 36.53)"/><path d="M141.82,123.84h-.63c-.41-8.77-5.34-15.83-11.55-16.45C136.18,108,141.4,115.06,141.82,123.84Z" transform="translate(26.74 36.53)"/><path d="M130.31,142.43a8.15,8.15,0,0,0,1-.15,9.85,9.85,0,0,1-1.81.23,0,0,0,0,1,0,0h-.22a.09.09,0,0,0,.07,0h.5A2.72,2.72,0,0,0,130.31,142.43Z" transform="translate(26.74 36.53)"/><path d="M143.31,126.67c-.55,7.25-4.75,13.18-10.33,15.13,5.42-2,9.47-7.92,10-15.13Z" transform="translate(26.74 36.53)"/><path d="M143.34,123.84H143c-.43-7.94-5.11-14.49-11.29-16.12C138.08,109.29,142.9,115.87,143.34,123.84Z" transform="translate(26.74 36.53)"/><path d="M126.75,107.54c-6.84,1.21-12.2,8-12.69,16.3h-.42C114.13,115.48,119.68,108.71,126.75,107.54Z" transform="translate(26.74 36.53)"/><path d="M126.35,142.31c-6.8-1.21-12-7.64-12.68-15.64h.41C114.67,134.63,119.76,141.06,126.35,142.31Z" transform="translate(26.74 36.53)"/><path d="M127,142.41l-.2,0-.44-.08Z" transform="translate(26.74 36.53)"/><path d="M127,107.54c-6.14,1.21-11,8-11.42,16.3H115C115.51,115.48,120.57,108.69,127,107.54Z" transform="translate(26.74 36.53)"/><path d="M127.54,142.46h-.18c-6.57-.77-11.75-7.41-12.32-15.78h.56C116.14,135.09,121.17,141.76,127.54,142.46Z" transform="translate(26.74 36.53)"/><path d="M147.67,123.84a.5.5,0,0,1,.52.47v1.89a.5.5,0,0,1-.52.47H110.83a.5.5,0,0,1-.52-.47v-1.89a.5.5,0,0,1,.52-.47h36.84m0-.8H110.83a1.3,1.3,0,0,0-1.32,1.27v1.89a1.3,1.3,0,0,0,1.32,1.27h36.84A1.3,1.3,0,0,0,149,126.2v-1.89a1.3,1.3,0,0,0-1.32-1.27Z" transform="translate(26.74 36.53)"/><path d="M127.52,142.44c-5.67-.77-10.12-7.41-10.58-15.77h.71C118.07,135,122.22,141.62,127.52,142.44Z" transform="translate(26.74 36.53)"/><path d="M128.36,107.38c-5.67.52-10.27,7.61-10.71,16.46h-.71C117.4,115,122.31,107.86,128.36,107.38Z" transform="translate(26.74 36.53)"/><path d="M127.92,142.48l.14,0h-.16l-.38-.05Z" transform="translate(26.74 36.53)"/><path d="M128.94,107.35a3.4,3.4,0,0,0-.45,0h-.1A4.93,4.93,0,0,1,128.94,107.35Z" transform="translate(26.74 36.53)"/><path d="M128.07,142.49h-.15c-4.53-.63-8.08-7.33-8.42-15.81h.85C120.65,135.22,123.92,142,128.07,142.49Z" transform="translate(26.74 36.53)"/><path d="M128.07,142.49c.13,0,.26,0,.4,0h-.09A1.55,1.55,0,0,1,128.07,142.49Z" transform="translate(26.74 36.53)"/><path d="M128.53,107.38c-4.29.52-7.8,7.62-8.16,16.46h-.87c.4-8.83,4.24-15.92,9-16.46Z" transform="translate(26.74 36.53)"/><path d="M128.09,107.58c-2.63,1.31-4.72,8-5,16.26h-.86C122.39,116.29,124.23,109,128.09,107.58Z" transform="translate(26.74 36.53)"/><path d="M128.23,142.49a3.2,3.2,0,0,1-1.65-.8c-2.57-2.19-4.08-8.44-4.32-15h.83C123.26,135.21,125.45,141.93,128.23,142.49Z" transform="translate(26.74 36.53)"/><path d="M128.94,107.35l-.2,0a3.41,3.41,0,0,0-.57.16A2,2,0,0,1,128.94,107.35Z" transform="translate(26.74 36.53)"/><path d="M128.62,142.53h-.19c-1.86-.46-3.29-7.22-3.37-15.84H126C126.05,135.56,127.18,142.48,128.62,142.53Z" transform="translate(26.74 36.53)"/><path d="M128.91,107.35h0c-1.46.3-2.71,7.5-2.89,16.48h-1c.21-8.77,1.78-15.82,3.67-16.45l.16,0Z" transform="translate(26.74 36.53)"/><path d="M128.76,107.34h0" transform="translate(26.74 36.53)"/><path d="M128.83,107.34h0" transform="translate(26.74 36.53)"/><path d="M128.67,107.34h0" transform="translate(26.74 36.53)"/><path d="M128.52,107.35h0" transform="translate(26.74 36.53)"/><path d="M127.51,107.4l-.33,0a15.22,15.22,0,0,1,1.79-.08,14.15,14.15,0,0,0-1.46.05" transform="translate(26.74 36.53)"/><path d="M126.52,107.51l-.24,0-.79.15a14.84,14.84,0,0,1,3.48-.35,15.28,15.28,0,0,0-2.45.16" transform="translate(26.74 36.53)"/><path d="M129.28,107.35h0" transform="translate(26.74 36.53)"/><path d="M129.71,107.37h-.14c-.2,0-.4,0-.6,0a6.1,6.1,0,0,1,.74,0" transform="translate(26.74 36.53)"/><path d="M129.09,107.34h0" transform="translate(26.74 36.53)"/><path d="M129,107.34h0" transform="translate(26.74 36.53)"/><polyline points="155.72 143.88 155.72 143.88 155.7 143.88 155.71 143.88 155.72 143.88"/><path d="M128.94,107.34h0" transform="translate(26.74 36.53)"/><path d="M128.89,107.34h0" transform="translate(26.74 36.53)"/><path d="M130.88,107.51a13.81,13.81,0,0,0-1.59-.15l.3,0h.12A11.62,11.62,0,0,1,130.88,107.51Z" transform="translate(26.74 36.53)"/><path d="M130.21,142.47l.51-.06-.12,0Z" transform="translate(26.74 36.53)"/><path d="M130.72,142.41a17.4,17.4,0,0,0,4.69-1.47A14,14,0,0,1,130.72,142.41Z" transform="translate(26.74 36.53)"/><path d="M144.69,126.67a17.05,17.05,0,0,1-8.81,14,17.6,17.6,0,0,0,8.62-14Z" transform="translate(26.74 36.53)"/><path d="M144.73,123.84h-.2c-.45-7.94-5.63-14.48-12.44-16.11A15.06,15.06,0,0,1,138,110.5,18,18,0,0,1,144.73,123.84Z" transform="translate(26.74 36.53)"/><path d="M131.28,107.54l-.17,0a15.07,15.07,0,0,0-2.14-.16c.69,0,1.62.1,2.31.19" transform="translate(26.74 36.53)"/><path d="M130.77,107.47l-.18,0a12.36,12.36,0,0,0-1.62-.1,13.38,13.38,0,0,1,1.8.12" transform="translate(26.74 36.53)"/><path d="M130.23,107.41h-.16l-1.1-.05q.65,0,1.26.06" transform="translate(26.74 36.53)"/></g><g class="cls-6"><path d="M128.68,142.52h0" transform="translate(26.74 36.53)"/><path d="M128.68,142.52h0" transform="translate(26.74 36.53)"/><path d="M128.68,142.52h0" transform="translate(26.74 36.53)"/><path d="M128.68,142.52h0" transform="translate(26.74 36.53)"/><path d="M128.68,142.52h0" transform="translate(26.74 36.53)"/><path d="M128.68,142.52h0" transform="translate(26.74 36.53)"/><path d="M128.68,142.52h0" transform="translate(26.74 36.53)"/><path d="M128.68,142.52h0a11.8,11.8,0,0,1-1.69-.11l-.2,0a13.14,13.14,0,0,0,1.89.13" transform="translate(26.74 36.53)"/><path d="M128.68,142.52h0a14.72,14.72,0,0,1-2.32-.19l-.19,0a14.83,14.83,0,0,0,2.51.22" transform="translate(26.74 36.53)"/><path d="M128.68,142.52h0a7.26,7.26,0,0,1-1.14-.06h-.18a9.65,9.65,0,0,0,1.32.07" transform="translate(26.74 36.53)"/><path d="M128.68,142.52h0a4.24,4.24,0,0,1-.62,0h-.16a5.09,5.09,0,0,0,.78,0" transform="translate(26.74 36.53)"/><path d="M128.68,142.52h0" transform="translate(26.74 36.53)"/><path d="M128.68,142.52h0" transform="translate(26.74 36.53)"/><path d="M128.68,142.52h0" transform="translate(26.74 36.53)"/><path d="M128.68,142.52h0a15.1,15.1,0,0,1-2.93-.29h0a16.24,16.24,0,0,1-2.55-.73l-.28-.12a15.62,15.62,0,0,0,5.8,1.15" transform="translate(26.74 36.53)"/><path d="M128.68,142.52h0c.58,0,1.35,0,1.92-.09l-.39,0c-.5,0-1,.06-1.53.05" transform="translate(26.74 36.53)"/><path d="M128.68,142.52h0" transform="translate(26.74 36.53)"/><path d="M128.68,142.52h0a15,15,0,0,0,3.09-.27l-.38.07a14.3,14.3,0,0,1-2.71.2" transform="translate(26.74 36.53)"/></g></g><text class="cls-7" transform="translate(93.58 195.14)">LET OUR LEARNING BE GLORIOUS</text><path d="M146.08,127.52a17.11,17.11,0,0,1-33.91,0h33.91m.89-.8H111.28a17.91,17.91,0,0,0,35.69,0Z" transform="translate(26.74 36.53)"/><path d="M129.13,108.15a17.17,17.17,0,0,1,17,14.84H112.17a17.18,17.18,0,0,1,17-14.84m0-.8a17.89,17.89,0,0,0-17.85,16.44H147a17.88,17.88,0,0,0-17.84-16.44Z" transform="translate(26.74 36.53)"/></svg>